<svg xmlns="http://www.w3.org/2000/svg" width="512" height="512" viewBox="0 0 512 512">
  <defs>
    <linearGradient id="bg" x1="0" y1="0" x2="1" y2="1">
      <stop offset="0%" stop-color="#1a1a2e"/>
      <stop offset="100%" stop-color="#16213e"/>
    </linearGradient>
  </defs>
  <rect width="512" height="512" rx="80" fill="url(#bg)"/>
  <!-- Antenna -->
  <rect x="236" y="60" width="40" height="60" rx="8" fill="#eab308"/>
  <circle cx="256" cy="45" r="18" fill="#eab308"/>
  <!-- Head -->
  <rect x="120" y="140" width="272" height="240" rx="48" fill="#eab308"/>
  <!-- Eyes -->
  <circle cx="200" cy="250" r="36" fill="#1a1a2e"/>
  <circle cx="312" cy="250" r="36" fill="#1a1a2e"/>
  <circle cx="200" cy="242" r="14" fill="#eab308"/>
  <circle cx="312" cy="242" r="14" fill="#eab308"/>
  <!-- Mouth -->
  <rect x="180" y="310" width="152" height="20" rx="10" fill="#1a1a2e"/>
  <rect x="180" y="310" width="152" height="6" rx="3" fill="#eab308"/>
  <!-- Ears -->
  <rect x="80" y="210" width="40" height="80" rx="12" fill="#eab308"/>
  <rect x="392" y="210" width="40" height="80" rx="12" fill="#eab308"/>
  <rect x="80" y="210" width="12" height="80" rx="6" fill="#1a1a2e"/>
  <rect x="420" y="210" width="12" height="80" rx="6" fill="#1a1a2e"/>
</svg>